:SAMPLES-PER-SECOND 30
:FULLY-SPECIFIED
:DEGREES
1
root  7.48299 40.871 -0.362021 -162.352 -86.9779 160.122
RightUpLeg  3.25254 -7.69353 -4.11394
RightLeg  5.99952 -3.33674 3.19058
RightFoot  -5.74793 0.0896486 -2.65679
RightToes  0.00048216 0.542163 -0.142577
Spine  -0.682039 0.311768 -0.734462
Spine1  4.74407 0.660295 -0.81676
HEad  1.08193 -2.42165 1.16844
LeftShoulder1  0.309755 0.577493 -2.32164
LeftArm  -21.9684 7.13897 -9.91999
LeftForeArm  0.271625 0.580895 -0.367863
LeftHand  -0.25398 0.0180481 5.50724
RightShoulder  0.540026 1.01947 4.00568
RightArm  -17.7692 -2.82776 2.65276
RightForeArm  6.33383 0.781201 3.27111
RightHand  -0.886252 2.6355 -13.0369
LeftUpLeg  5.24211 2.86397 -1.26799
LeftLeg  1.11754 11.3737 -3.5739
LeftFoot  -4.55804 -0.176508 3.5869
LeftToes  1.06248e-005 4.65855e-005 -8.185e-006
2
root  7.47242 40.871 -0.359431 -162.197 -86.9879 159.994
RightUpLeg  3.23019 -7.67822 -4.10902
RightLeg  5.99884 -3.35047 3.17022
RightFoot  -5.74778 0.0879222 -2.6299
RightToes  0.00048216 0.542163 -0.142577
Spine  -0.703872 0.28966 -0.739941
Spine1  4.75397 0.648413 -0.861218
HEad  1.15561 -2.41719 1.21362
LeftShoulder1  0.299 0.644489 -2.17418
LeftArm  -22.0132 7.17116 -10.0415
LeftForeArm  0.342023 0.567605 -0.349076
LeftHand  -0.25398 0.0180481 5.50724
RightShoulder  0.549864 1.05497 4.14491
RightArm  -17.6896 -2.77549 2.5385
RightForeArm  6.11036 0.753742 3.31279
RightHand  -0.889556 2.62258 -13.1039
LeftUpLeg  5.24217 2.88073 -1.25889
LeftLeg  1.09087 11.3401 -3.60858
LeftFoot  -4.55268 -0.176911 3.59319
LeftToes  1.06248e-005 4.65855e-005 -8.185e-006
3
root  7.45033 40.871 -0.353239 -161.841 -87.019 159.69
RightUpLeg  3.21762 -7.64909 -4.09995
RightLeg  5.97152 -3.4168 3.13058
RightFoot  -5.74862 0.0858286 -2.5973
RightToes  0.00048216 0.542163 -0.142577
Spine  -0.744953 0.26031 -0.71163
Spine1  4.75786 0.645059 -0.980007
HEad  1.29528 -2.44624 1.3327
LeftShoulder1  0.285128 0.718286 -1.92357
LeftArm  -22.058 7.20729 -10.2619
LeftForeArm  0.37212 0.542997 -0.33849
LeftHand  -0.25398 0.0180481 5.50724
RightShoulder  0.556217 1.04599 4.32946
RightArm  -17.5645 -2.6961 2.41653
RightForeArm  5.82715 0.722113 3.37753
RightHand  -0.899206 2.65926 -13.1857
LeftUpLeg  5.24402 2.88006 -1.26773
LeftLeg  1.032 11.314 -3.63506
LeftFoot  -4.53474 -0.177583 3.60364
LeftToes  1.06248e-005 4.65855e-005 -8.185e-006
4
root  7.42384 40.871 -0.346532 -161.484 -87.0528 159.384
RightUpLeg  3.2281 -7.61508 -4.09047
RightLeg  5.93204 -3.49016 3.08964
RightFoot  -5.75974 0.0833168 -2.5582
RightToes  0.00048216 0.542163 -0.142577
Spine  -0.773961 0.246359 -0.697114
Spine1  4.71602 0.645367 -1.05228
HEad  1.43697 -2.4732 1.43136
LeftShoulder1  0.278399 0.74453 -1.75807
LeftArm  -22.0284 7.22351 -10.4207
LeftForeArm  0.235633 0.515618 -0.366811
LeftHand  -0.25398 0.0180481 5.50724
RightShoulder  0.556076 1.02618 4.38616
RightArm  -17.4807 -2.70689 2.36408
RightForeArm  5.75694 0.753791 3.41236
RightHand  -0.891367 2.61512 -13.1411
LeftUpLeg  5.24532 2.86801 -1.28855
LeftLeg  0.989248 11.3054 -3.63841
LeftFoot  -4.52477 -0.178452 3.61719
LeftToes  1.06248e-005 4.65855e-005 -8.185e-006
5
root  7.39824 40.8698 -0.340655 -161.224 -87.0825 159.172
RightUpLeg  3.21938 -7.59982 -4.08835
RightLeg  5.93274 -3.526 3.07012
RightFoot  -5.8015 0.0820762 -2.53888
RightToes  0.00048216 0.542163 -0.142577
Spine  -0.771623 0.24419 -0.729471
Spine1  4.61804 0.632328 -1.01124
HEad  1.58314 -2.44258 1.40408
LeftShoulder1  0.278454 0.732798 -1.71296
LeftArm  -22.0349 7.23709 -10.4588
LeftForeArm  0.234122 0.486592 -0.369303
LeftHand  -0.25398 0.0180481 5.50724
RightShoulder  0.552456 1.0313 4.28033
RightArm  -17.468 -2.82446 2.36929
RightForeArm  5.92847 0.847543 3.40217
RightHand  -0.858617 2.43508 -12.9448
LeftUpLeg  5.22166 2.86972 -1.29716
LeftLeg  1.01146 11.2718 -3.6411
LeftFoot  -4.55532 -0.179824 3.63854
LeftToes  1.06248e-005 4.65855e-005 -8.185e-006
6
root  7.37519 40.866 -0.332401 -160.957 -87.1079 158.96
RightUpLeg  3.16859 -7.62557 -4.11293
RightLeg  5.98875 -3.5218 3.08374
RightFoot  -5.87008 0.0817848 -2.53832
RightToes  0.00048216 0.542163 -0.142577
Spine  -0.757573 0.245181 -0.74441
Spine1  4.53768 0.624567 -0.973254
HEad  1.70614 -2.38848 1.32174
LeftShoulder1  0.278993 0.715656 -1.66649
LeftArm  -22.1947 7.25937 -10.4574
LeftForeArm  0.584887 0.433846 -0.293831
LeftHand  -0.25398 0.0180481 5.50724
RightShoulder  0.538168 0.963863 4.12618
RightArm  -17.5179 -2.89892 2.42484
RightForeArm  6.12829 0.927059 3.37409
RightHand  -0.837691 2.32493 -12.8076
LeftUpLeg  5.17989 2.88202 -1.29974
LeftLeg  1.05609 11.2242 -3.66066
LeftFoot  -4.62015 -0.182099 3.67397
LeftToes  1.06248e-005 4.65855e-005 -8.185e-006
7
root  7.3545 40.8619 -0.319549 -160.761 -87.1191 158.826
RightUpLeg  3.1049 -7.66605 -4.15516
RightLeg  6.05512 -3.49277 3.10751
RightFoot  -5.93372 0.0783256 -2.49657
RightToes  0.00048216 0.542163 -0.142577
Spine  -0.765308 0.243278 -0.679897
Spine1  4.5502 0.643127 -1.06525
HEad  1.7164 -2.38143 1.3626
LeftShoulder1  0.273419 0.73165 -1.50459
LeftArm  -22.4155 7.26876 -10.5352
LeftForeArm  0.901105 0.39703 -0.195589
LeftHand  -0.25398 0.0180481 5.50724
RightShoulder  0.516615 0.797248 4.08745
RightArm  -17.6003 -2.82406 2.46965
RightForeArm  6.12392 0.935213 3.35876
RightHand  -0.863321 2.47473 -12.9512
LeftUpLeg  5.13856 2.88929 -1.31135
LeftLeg  1.07516 11.2136 -3.68716
LeftFoot  -4.69596 -0.184026 3.704
LeftToes  1.06248e-005 4.65855e-005 -8.185e-006
8
root  7.33605 40.8579 -0.304516 -161.022 -87.1094 159.164
RightUpLeg  3.03533 -7.67487 -4.16901
RightLeg  6.10353 -3.45679 3.11386
RightFoot  -5.97614 0.0732399 -2.42643
RightToes  0.00048216 0.542163 -0.142577
Spine  -0.795704 0.228795 -0.561377
Spine1  4.60211 0.666351 -1.24212
HEad  1.63632 -2.40926 1.54559
LeftShoulder1  0.262225 0.787297 -1.26662
LeftArm  -22.568 7.25225 -10.694
LeftForeArm  0.806018 0.484664 -0.125959
LeftHand  -0.25398 0.0180481 5.50724
RightShoulder  0.510833 0.710626 4.2097
RightArm  -17.692 -2.71669 2.40065
RightForeArm  5.97727 0.893864 3.34525
RightHand  -0.911916 2.74062 -13.2414
LeftUpLeg  5.05394 2.88087 -1.32481
LeftLeg  1.148 11.2451 -3.67956
LeftFoot  -4.80115 -0.181743 3.68886
LeftToes  1.06248e-005 4.65855e-005 -8.185e-006
9
root  7.31825 40.8517 -0.287431 -161.966 -87.0644 160.207
RightUpLeg  2.92293 -7.66934 -4.15291
RightLeg  6.16655 -3.39792 3.12276
RightFoot  -6.02157 0.0725534 -2.42581
RightToes  0.00048216 0.542163 -0.142577
Spine  -0.814378 0.213036 -0.418078
Spine1  4.58025 0.682482 -1.40431
HEad  1.65627 -2.4211 1.70444
LeftShoulder1  0.256325 0.820316 -1.15193
LeftArm  -22.6962 7.24751 -10.76
LeftForeArm  0.60137 0.662813 -0.0484271
LeftHand  -0.25398 0.0180481 5.50724
RightShoulder  0.523786 0.780199 4.33025
RightArm  -17.8653 -2.73766 2.33438
RightForeArm  5.96067 0.876487 3.28281
RightHand  -0.925739 2.8044 -13.3375
LeftUpLeg  4.88768 2.84131 -1.34434
LeftLeg  1.34626 11.3342 -3.60603
LeftFoot  -4.96752 -0.171928 3.62481
LeftToes  1.06248e-005 4.65855e-005 -8.185e-006
10
root  7.29728 40.8439 -0.261693 -163.449 -86.9141 161.775
RightUpLeg  2.79705 -7.70767 -4.1808
RightLeg  6.26396 -3.21109 3.16829
RightFoot  -6.08829 0.0744378 -2.47029
RightToes  0.00048216 0.542163 -0.142577
Spine  -0.783671 0.241603 -0.216137
Spine1  4.50032 0.743534 -1.57597
HEad  1.91122 -2.45186 1.75099
LeftShoulder1  0.265069 0.77948 -1.35168
LeftArm  -22.8734 7.31377 -10.5679
LeftForeArm  0.628271 0.686452 0.0511397
LeftHand  -0.25398 0.0180481 5.50724
RightShoulder  0.519746 0.781882 4.21643
RightArm  -18.2913 -2.87513 2.72266
RightForeArm  5.93387 1.0073 3.15147
RightHand  -0.906157 2.62399 -13.3425
LeftUpLeg  4.75669 2.77386 -1.40306
LeftLeg  1.52701 11.5916 -3.50992
LeftFoot  -5.17139 -0.160062 3.54761
LeftToes  1.06248e-005 4.65855e-005 -8.185e-006
